<svg width="43" height="43" viewBox="0 0 43 43" fill="none" xmlns="http://www.w3.org/2000/svg">
<path d="M26.7482 10.9367H29.906C30.1802 10.1986 30.6737 9.56194 31.3203 9.11239C31.9668 8.66284 32.7354 8.42189 33.5229 8.42189C34.3104 8.42189 35.079 8.66284 35.7255 9.11239C36.3721 9.56194 36.8656 10.1986 37.1398 10.9367H41.6563C42.0127 10.9367 42.3545 11.0783 42.6065 11.3303C42.8585 11.5823 43 11.9241 43 12.2805C43 12.6369 42.8585 12.9787 42.6065 13.2307C42.3545 13.4827 42.0127 13.6242 41.6563 13.6242H37.14C36.8658 14.3624 36.3723 14.999 35.7257 15.4485C35.0792 15.8981 34.3106 16.139 33.5232 16.139C32.7357 16.139 31.9671 15.8981 31.3206 15.4485C30.6741 14.999 30.1806 14.3624 29.9064 13.6242H26.7486C26.3922 13.6242 26.0504 13.4827 25.7984 13.2307C25.5464 12.9787 25.4048 12.6369 25.4048 12.2805C25.4048 11.9241 25.5464 11.5823 25.7984 11.3303C26.0504 11.0783 26.3922 10.9367 26.7486 10.9367H26.7482ZM41.6563 20.6313H29.5709C29.2968 19.8931 28.8033 19.2565 28.1567 18.8069C27.5102 18.3574 26.7416 18.1164 25.9541 18.1164C25.1666 18.1164 24.398 18.3574 23.7515 18.8069C23.105 19.2565 22.6115 19.8931 22.3373 20.6313H20.766C20.4096 20.6313 20.0679 20.7729 19.8158 21.0249C19.5638 21.2769 19.4223 21.6187 19.4223 21.9751C19.4223 22.3314 19.5638 22.6732 19.8158 22.9252C20.0679 23.1772 20.4096 23.3188 20.766 23.3188H22.3372C22.6114 24.057 23.1049 24.6936 23.7514 25.1432C24.3979 25.5927 25.1666 25.8337 25.954 25.8337C26.7415 25.8337 27.5101 25.5927 28.1567 25.1432C28.8032 24.6936 29.2967 24.057 29.5709 23.3188H41.6563C42.0127 23.3188 42.3545 23.1772 42.6065 22.9252C42.8585 22.6732 43 22.3314 43 21.9751C43 21.6187 42.8585 21.2769 42.6065 21.0249C42.3545 20.7729 42.0127 20.6313 41.6563 20.6313ZM41.6563 30.3258H40.1838C39.9096 29.5876 39.4161 28.951 38.7696 28.5014C38.1231 28.0519 37.3544 27.8109 36.567 27.8109C35.7795 27.8109 35.0109 28.0519 34.3643 28.5014C33.7178 28.951 33.2243 29.5876 32.9501 30.3258H20.766C20.4096 30.3258 20.0679 30.4674 19.8158 30.7194C19.5638 30.9714 19.4223 31.3132 19.4223 31.6695C19.4223 32.0259 19.5638 32.3677 19.8158 32.6197C20.0679 32.8717 20.4096 33.0133 20.766 33.0133H32.9501C33.2243 33.7515 33.7178 34.3881 34.3643 34.8377C35.0109 35.2872 35.7795 35.5282 36.567 35.5282C37.3544 35.5282 38.1231 35.2872 38.7696 34.8377C39.4161 34.3881 39.9096 33.7515 40.1838 33.0133H41.6563C42.0127 33.0133 42.3545 32.8717 42.6065 32.6197C42.8585 32.3677 43 32.0259 43 31.6695C43 31.3132 42.8585 30.9714 42.6065 30.7194C42.3545 30.4674 42.0127 30.3258 41.6563 30.3258ZM25.3332 8.44047C25.5984 8.10745 25.7643 7.70634 25.8117 7.28326C25.8592 6.86018 25.7863 6.43229 25.6015 6.04878C25.4166 5.66526 25.1273 5.34169 24.7668 5.11524C24.4063 4.8888 23.9892 4.76867 23.5635 4.76868H2.26527C1.83966 4.76877 1.4227 4.88893 1.0623 5.11534C0.701898 5.34175 0.412676 5.66524 0.227855 6.04863C0.0430338 6.43203 -0.0298884 6.85978 0.0174651 7.28276C0.0648186 7.70573 0.230527 8.10677 0.495554 8.4398L1.12409 9.22925H24.7049L25.3332 8.44047ZM3.25226 11.9024L8.99813 19.119V36.8881C8.99812 37.124 9.06021 37.3557 9.17814 37.56C9.29608 37.7643 9.46571 37.9339 9.66999 38.0518C9.87426 38.1698 10.106 38.2319 10.3419 38.2319C10.5778 38.2319 10.8095 38.1698 11.0138 38.0519L16.1587 35.0813C16.363 34.9634 16.5326 34.7938 16.6506 34.5895C16.7685 34.3852 16.8306 34.1535 16.8306 33.9176V19.119L22.5765 11.9024H3.25226Z" fill="black"/>
</svg>
