<svg xmlns="http://www.w3.org/2000/svg" version="1.1" xmlns:xlink="http://www.w3.org/1999/xlink" xmlns:svgjs="http://svgjs.com/svgjs" width="30" height="30" x="0" y="0" viewBox="0 0 396.016 396.016" style="enable-background:new 0 0 30 30" xml:space="preserve" class=""><g>
<g>
	<g>
		<g>
			<path d="M9.404,160.914l37.094,200.62c3.519,19.801,20.641,34.289,40.751,34.482h221.518
				c20.111-0.193,37.232-14.68,40.751-34.482l37.094-200.62H9.404z M130.09,250.776c0,5.771-4.678,10.449-10.449,10.449
				s-10.449-4.678-10.449-10.449v-31.347c0-5.771,4.678-10.449,10.449-10.449s10.449,4.678,10.449,10.449V250.776z M286.825,250.776
				c0,5.771-4.678,10.449-10.449,10.449c-5.771,0-10.449-4.678-10.449-10.449v-31.347c0-5.771,4.678-10.449,10.449-10.449
				c5.771,0,10.449,4.678,10.449,10.449V250.776z" fill="#000000" data-original="#000000" class=""></path>
			<path d="M130.09,88.816c0-37.51,30.408-67.918,67.918-67.918c37.51,0,67.918,30.408,67.918,67.918v61.649h20.898V88.816
				C286.825,39.764,247.06,0,198.008,0s-88.816,39.764-88.816,88.816v61.649h20.898V88.816z" fill="#000000" data-original="#000000" class=""></path>
		</g>
	</g>
</g>
<g>
</g>
<g>
</g>
<g>
</g>
<g>
</g>
<g>
</g>
<g>
</g>
<g>
</g>
<g>
</g>
<g>
</g>
<g>
</g>
<g>
</g>
<g>
</g>
<g>
</g>
<g>
</g>
<g>
</g>
</g></svg>